<svg width="48" height="48" viewBox="0 0 48 48" fill="none" xmlns="http://www.w3.org/2000/svg">
  <!-- University building -->
  <rect x="8" y="24" width="32" height="16" rx="2" fill="#37C99E"/>
  <rect x="10" y="26" width="28" height="12" fill="white"/>
  
  <!-- Columns -->
  <rect x="12" y="20" width="2" height="18" fill="#37C99E"/>
  <rect x="18" y="20" width="2" height="18" fill="#37C99E"/>
  <rect x="24" y="20" width="2" height="18" fill="#37C99E"/>
  <rect x="30" y="20" width="2" height="18" fill="#37C99E"/>
  <rect x="36" y="20" width="2" height="18" fill="#37C99E"/>
  
  <!-- Roof -->
  <path d="M6 20 L24 8 L42 20 L40 18 L24 10 L8 18 Z" fill="#37C99E"/>
  
  <!-- Flag -->
  <rect x="22" y="8" width="4" height="12" fill="#37C99E"/>
  <path d="M26 8 L32 10 L26 12 Z" fill="#B9EADF"/>
  
  <!-- Academic elements -->
  <circle cx="16" cy="30" r="2" fill="#B9EADF"/>
  <text x="16" y="32" text-anchor="middle" font-family="Arial" font-size="6" font-weight="bold" fill="#37C99E">A</text>
  
  <circle cx="32" cy="30" r="2" fill="#B9EADF"/>
  <text x="32" y="32" text-anchor="middle" font-family="Arial" font-size="6" font-weight="bold" fill="#37C99E">+</text>
  
  <!-- Knowledge symbol -->
  <circle cx="24" cy="42" r="3" fill="#D4F5EE"/>
  <path d="M22.5 42 L23.5 43 L25.5 41" stroke="#37C99E" stroke-width="1.5" fill="none" stroke-linecap="round" stroke-linejoin="round"/>
</svg>

