<svg width="48" height="48" viewBox="0 0 48 48" fill="none" xmlns="http://www.w3.org/2000/svg">
  <!-- Brain/AI core -->
  <path d="M16 18 Q12 14 16 10 Q20 6 24 10 Q28 6 32 10 Q36 14 32 18 Q36 22 32 26 Q36 30 32 34 Q28 38 24 34 Q20 38 16 34 Q12 30 16 26 Q12 22 16 18 Z" fill="#37C99E"/>
  
  <!-- Neural network nodes -->
  <circle cx="20" cy="16" r="2" fill="white"/>
  <circle cx="28" cy="16" r="2" fill="white"/>
  <circle cx="24" cy="24" r="2" fill="white"/>
  <circle cx="18" cy="28" r="2" fill="white"/>
  <circle cx="30" cy="28" r="2" fill="white"/>
  
  <!-- Connections -->
  <path d="M20 16 L24 24" stroke="white" stroke-width="1.5" opacity="0.7"/>
  <path d="M28 16 L24 24" stroke="white" stroke-width="1.5" opacity="0.7"/>
  <path d="M24 24 L18 28" stroke="white" stroke-width="1.5" opacity="0.7"/>
  <path d="M24 24 L30 28" stroke="white" stroke-width="1.5" opacity="0.7"/>
  
  <!-- AI sparkles -->
  <circle cx="8" cy="12" r="1.5" fill="#37C99E"/>
  <circle cx="40" cy="16" r="1" fill="#37C99E"/>
  <circle cx="6" cy="32" r="1" fill="#37C99E"/>
  <circle cx="42" cy="36" r="1.5" fill="#37C99E"/>
  
  <!-- Data streams -->
  <path d="M4 24 Q8 20 12 24 Q16 28 20 24" stroke="#B9EADF" stroke-width="2" fill="none" opacity="0.6"/>
  <path d="M28 24 Q32 20 36 24 Q40 28 44 24" stroke="#B9EADF" stroke-width="2" fill="none" opacity="0.6"/>
</svg>

