<svg width="48" height="48" viewBox="0 0 48 48" fill="none" xmlns="http://www.w3.org/2000/svg">
  <!-- Building -->
  <rect x="12" y="8" width="24" height="32" rx="2" fill="#37C99E"/>
  <rect x="14" y="10" width="20" height="28" fill="white"/>
  
  <!-- Windows -->
  <rect x="16" y="12" width="3" height="3" fill="#B9EADF"/>
  <rect x="21" y="12" width="3" height="3" fill="#B9EADF"/>
  <rect x="26" y="12" width="3" height="3" fill="#B9EADF"/>
  <rect x="31" y="12" width="3" height="3" fill="#B9EADF"/>
  
  <rect x="16" y="17" width="3" height="3" fill="#B9EADF"/>
  <rect x="21" y="17" width="3" height="3" fill="#B9EADF"/>
  <rect x="26" y="17" width="3" height="3" fill="#37C99E"/>
  <rect x="31" y="17" width="3" height="3" fill="#B9EADF"/>
  
  <rect x="16" y="22" width="3" height="3" fill="#B9EADF"/>
  <rect x="21" y="22" width="3" height="3" fill="#B9EADF"/>
  <rect x="26" y="22" width="3" height="3" fill="#B9EADF"/>
  <rect x="31" y="22" width="3" height="3" fill="#B9EADF"/>
  
  <!-- Door -->
  <rect x="22" y="32" width="4" height="8" fill="#37C99E"/>
  <circle cx="25" cy="36" r="0.5" fill="white"/>
  
  <!-- Success arrow -->
  <path d="M38 16 L42 12 L40 10 L42 12 L40 14" stroke="#37C99E" stroke-width="2" fill="none" stroke-linecap="round" stroke-linejoin="round"/>
  
  <!-- Handshake symbol -->
  <circle cx="6" cy="24" r="4" fill="#D4F5EE"/>
  <path d="M4 24 L8 24" stroke="#37C99E" stroke-width="2" stroke-linecap="round"/>
  <path d="M6 22 L6 26" stroke="#37C99E" stroke-width="1.5" stroke-linecap="round"/>
</svg>

