<svg width="48" height="48" viewBox="0 0 48 48" fill="none" xmlns="http://www.w3.org/2000/svg">
  <!-- Settings gear -->
  <path d="M24 8 L26 12 L30 10 L32 14 L36 16 L34 20 L38 22 L36 26 L32 28 L30 32 L26 30 L24 34 L22 30 L18 32 L16 28 L12 26 L14 22 L10 20 L12 16 L16 14 L18 10 L22 12 Z" fill="#37C99E"/>
  <circle cx="24" cy="22" r="6" fill="white"/>
  <circle cx="24" cy="22" r="3" fill="#37C99E"/>
  
  <!-- Customization sliders -->
  <rect x="6" y="36" width="16" height="3" rx="1.5" fill="#B9EADF"/>
  <circle cx="16" cy="37.5" r="2.5" fill="#37C99E"/>
  
  <rect x="6" y="42" width="16" height="3" rx="1.5" fill="#B9EADF"/>
  <circle cx="12" cy="43.5" r="2.5" fill="#37C99E"/>
  
  <rect x="26" y="36" width="16" height="3" rx="1.5" fill="#B9EADF"/>
  <circle cx="36" cy="37.5" r="2.5" fill="#37C99E"/>
  
  <!-- Adjustment indicators -->
  <path d="M40 8 L42 6 L44 8 L42 10 Z" fill="#37C99E"/>
  <path d="M4 8 L6 6 L8 8 L6 10 Z" fill="#37C99E"/>
</svg>

