<svg width="48" height="48" viewBox="0 0 48 48" fill="none" xmlns="http://www.w3.org/2000/svg">
  <!-- Person silhouette -->
  <circle cx="24" cy="14" r="6" fill="#37C99E"/>
  <path d="M12 36 Q12 28 24 28 Q36 28 36 36 L36 40 L12 40 Z" fill="#37C99E"/>
  
  <!-- Heart (personal touch) -->
  <path d="M20 18 Q18 16 16 18 Q14 20 16 22 L20 26 L24 22 Q26 20 24 18 Q22 16 20 18 Z" fill="#D4F5EE"/>
  
  <!-- Letter/document -->
  <rect x="28" y="8" width="16" height="20" rx="2" fill="white" stroke="#37C99E" stroke-width="2"/>
  <rect x="30" y="12" width="12" height="2" rx="1" fill="#37C99E"/>
  <rect x="30" y="16" width="8" height="1" fill="#B9EADF"/>
  <rect x="30" y="18" width="10" height="1" fill="#B9EADF"/>
  <rect x="30" y="20" width="6" height="1" fill="#B9EADF"/>
  <rect x="30" y="22" width="9" height="1" fill="#B9EADF"/>
  
  <!-- Personal signature -->
  <path d="M30 25 Q34 23 38 25 Q40 26 38 27" stroke="#37C99E" stroke-width="1.5" fill="none" stroke-linecap="round"/>
  
  <!-- Care/support symbols -->
  <circle cx="8" cy="12" r="2" fill="#D4F5EE"/>
  <path d="M7 12 L8 13 L9 11" stroke="#37C99E" stroke-width="1.2" fill="none" stroke-linecap="round" stroke-linejoin="round"/>
  
  <circle cx="8" cy="32" r="2" fill="#D4F5EE"/>
  <path d="M6.5 32 L7.5 33 L9.5 31" stroke="#37C99E" stroke-width="1.2" fill="none" stroke-linecap="round" stroke-linejoin="round"/>
</svg>

