<svg width="48" height="48" viewBox="0 0 48 48" fill="none" xmlns="http://www.w3.org/2000/svg">
  <!-- Award badge -->
  <circle cx="24" cy="20" r="12" fill="#37C99E"/>
  <circle cx="24" cy="20" r="8" fill="white"/>
  
  <!-- Star in center -->
  <path d="M24 14 L25.5 18.5 L30 18.5 L26.5 21.5 L28 26 L24 23 L20 26 L21.5 21.5 L18 18.5 L22.5 18.5 Z" fill="#37C99E"/>
  
  <!-- Ribbon -->
  <path d="M18 28 L24 32 L30 28 L30 40 L27 38 L24 40 L21 38 L18 40 Z" fill="#37C99E"/>
  <path d="M20 30 L28 30" stroke="white" stroke-width="1" stroke-linecap="round"/>
  <path d="M21 33 L27 33" stroke="white" stroke-width="1" stroke-linecap="round"/>
  
  <!-- Quality indicators -->
  <circle cx="12" cy="12" r="2" fill="#D4F5EE"/>
  <path d="M11 12 L11.7 12.7 L13 11.4" stroke="#37C99E" stroke-width="1.2" fill="none" stroke-linecap="round" stroke-linejoin="round"/>
  
  <circle cx="36" cy="12" r="2" fill="#D4F5EE"/>
  <path d="M35 12 L35.7 12.7 L37 11.4" stroke="#37C99E" stroke-width="1.2" fill="none" stroke-linecap="round" stroke-linejoin="round"/>
</svg>

