<svg width="48" height="48" viewBox="0 0 48 48" fill="none" xmlns="http://www.w3.org/2000/svg">
  <!-- Graduation cap -->
  <path d="M8 20 L24 12 L40 20 L24 28 Z" fill="#37C99E"/>
  <rect x="22" y="28" width="4" height="12" fill="#37C99E"/>
  <path d="M18 40 Q24 36 30 40" stroke="#37C99E" stroke-width="2" fill="none"/>
  
  <!-- Tassel -->
  <circle cx="28" cy="16" r="2" fill="#B9EADF"/>
  <path d="M28 18 L28 24" stroke="#37C99E" stroke-width="2"/>
  <circle cx="28" cy="24" r="1.5" fill="#37C99E"/>
  
  <!-- Book/diploma -->
  <rect x="32" y="24" width="12" height="8" rx="1" fill="white" stroke="#37C99E" stroke-width="1.5"/>
  <rect x="34" y="26" width="8" height="1" fill="#B9EADF"/>
  <rect x="34" y="28" width="6" height="0.5" fill="#D4F5EE"/>
  <rect x="34" y="30" width="7" height="0.5" fill="#D4F5EE"/>
  
  <!-- Excellence star -->
  <path d="M12 8 L13 11 L16 11 L13.5 13 L14.5 16 L12 14 L9.5 16 L10.5 13 L8 11 L11 11 Z" fill="#37C99E"/>
</svg>

