<svg width="48" height="48" viewBox="0 0 48 48" fill="none" xmlns="http://www.w3.org/2000/svg">
  <!-- Stack of documents -->
  <rect x="8" y="12" width="24" height="30" rx="2" fill="white" stroke="#37C99E" stroke-width="2"/>
  <rect x="12" y="8" width="24" height="30" rx="2" fill="white" stroke="#37C99E" stroke-width="2"/>
  <rect x="16" y="4" width="24" height="30" rx="2" fill="white" stroke="#37C99E" stroke-width="2"/>
  
  <!-- Content on top document -->
  <rect x="20" y="8" width="16" height="2" rx="1" fill="#37C99E"/>
  <rect x="20" y="12" width="12" height="1.5" rx="0.75" fill="#B9EADF"/>
  <rect x="20" y="15" width="14" height="1.5" rx="0.75" fill="#B9EADF"/>
  <rect x="20" y="18" width="10" height="1.5" rx="0.75" fill="#B9EADF"/>
  <rect x="20" y="21" width="16" height="1.5" rx="0.75" fill="#B9EADF"/>
  <rect x="20" y="24" width="8" height="1.5" rx="0.75" fill="#B9EADF"/>
  
  <!-- Library indicator -->
  <circle cx="6" cy="6" r="4" fill="#37C99E"/>
  <text x="6" y="9" text-anchor="middle" font-family="Arial" font-size="6" font-weight="bold" fill="white">∞</text>
  
  <!-- Template variety indicators -->
  <rect x="4" y="40" width="4" height="4" rx="1" fill="#D4F5EE"/>
  <rect x="10" y="40" width="4" height="4" rx="1" fill="#B9EADF"/>
  <rect x="16" y="40" width="4" height="4" rx="1" fill="#37C99E"/>
</svg>

